<svg width="30" height="30" viewBox="0 0 30 30" fill="none" xmlns="http://www.w3.org/2000/svg">
<circle cx="15" cy="15" r="15" fill="white"/>
<circle cx="15" cy="15" r="12" fill="#ED5A25"/>
<path d="M10.3337 10.3334H12.0837L13.2503 9.16675H16.7503L17.917 10.3334H19.667C19.9764 10.3334 20.2732 10.4563 20.4919 10.6751C20.7107 10.8939 20.8337 11.1907 20.8337 11.5001V18.5001C20.8337 18.8095 20.7107 19.1062 20.4919 19.325C20.2732 19.5438 19.9764 19.6667 19.667 19.6667H10.3337C10.0242 19.6667 9.72749 19.5438 9.5087 19.325C9.28991 19.1062 9.16699 18.8095 9.16699 18.5001V11.5001C9.16699 11.1907 9.28991 10.8939 9.5087 10.6751C9.72749 10.4563 10.0242 10.3334 10.3337 10.3334ZM15.0003 12.0834C14.2268 12.0834 13.4849 12.3907 12.9379 12.9377C12.3909 13.4847 12.0837 14.2265 12.0837 15.0001C12.0837 15.7736 12.3909 16.5155 12.9379 17.0625C13.4849 17.6095 14.2268 17.9167 15.0003 17.9167C15.7739 17.9167 16.5157 17.6095 17.0627 17.0625C17.6097 16.5155 17.917 15.7736 17.917 15.0001C17.917 14.2265 17.6097 13.4847 17.0627 12.9377C16.5157 12.3907 15.7739 12.0834 15.0003 12.0834ZM15.0003 13.2501C15.4645 13.2501 15.9096 13.4345 16.2378 13.7626C16.566 14.0908 16.7503 14.536 16.7503 15.0001C16.7503 15.4642 16.566 15.9093 16.2378 16.2375C15.9096 16.5657 15.4645 16.7501 15.0003 16.7501C14.5362 16.7501 14.0911 16.5657 13.7629 16.2375C13.4347 15.9093 13.2503 15.4642 13.2503 15.0001C13.2503 14.536 13.4347 14.0908 13.7629 13.7626C14.0911 13.4345 14.5362 13.2501 15.0003 13.2501Z" fill="white"/>
</svg>
